<svg xmlns="http://www.w3.org/2000/svg" xmlns:xlink="http://www.w3.org/1999/xlink" width="170" zoomAndPan="magnify" viewBox="0 0 127.5 30.750001" height="41" preserveAspectRatio="xMidYMid meet" version="1.0"><defs><g/><clipPath id="9116d6d431"><path d="M 0.265625 0 L 126.738281 0 L 126.738281 30.503906 L 0.265625 30.503906 Z M 0.265625 0 " clip-rule="nonzero"/></clipPath><clipPath id="848fb96c15"><path d="M 4 0.273438 L 36 0.273438 L 36 19 L 4 19 Z M 4 0.273438 " clip-rule="nonzero"/></clipPath><clipPath id="651f98b724"><path d="M 0.265625 11 L 36.273438 11 L 36.273438 29.925781 L 0.265625 29.925781 Z M 0.265625 11 " clip-rule="nonzero"/></clipPath><clipPath id="613d412c10"><path d="M 7 0.273438 L 36 0.273438 L 36 12 L 7 12 Z M 7 0.273438 " clip-rule="nonzero"/></clipPath><clipPath id="c1a69e122a"><path d="M 23 11 L 36.273438 11 L 36.273438 29.925781 L 23 29.925781 Z M 23 11 " clip-rule="nonzero"/></clipPath><clipPath id="8427427760"><path d="M 9 18 L 20.476562 18 L 20.476562 18.835938 L 9 18.835938 Z M 9 18 " clip-rule="nonzero"/></clipPath><clipPath id="d4336e7611"><path d="M 25.832031 18.898438 C 25.609375 18.964844 25.347656 19.050781 25.042969 19.128906 C 24.894531 19.171875 24.730469 19.214844 24.558594 19.246094 C 24.382812 19.277344 24.207031 19.324219 24.015625 19.351562 C 23.613281 19.421875 23.203125 19.46875 22.792969 19.488281 C 22.332031 19.507812 21.875 19.5 21.417969 19.46875 C 20.9375 19.433594 20.445312 19.371094 19.933594 19.292969 C 19.425781 19.210938 18.921875 19.09375 18.386719 18.996094 C 14.875 18.347656 11.410156 18.351562 9.449219 19.011719 C 11.835938 18.902344 14.1875 19.128906 16.503906 19.699219 C 17.015625 19.835938 17.558594 19.953125 18.101562 20.066406 C 18.648438 20.183594 19.203125 20.285156 19.765625 20.351562 C 20.320312 20.417969 20.875 20.453125 21.433594 20.453125 C 21.957031 20.449219 22.476562 20.402344 22.992188 20.316406 C 23.4375 20.234375 23.875 20.117188 24.304688 19.964844 C 24.488281 19.902344 24.667969 19.828125 24.84375 19.742188 C 25.011719 19.671875 25.160156 19.589844 25.300781 19.515625 C 25.539062 19.386719 25.765625 19.246094 25.988281 19.089844 C 26.167969 18.964844 26.292969 18.851562 26.382812 18.78125 L 26.519531 18.667969 C 26.519531 18.667969 26.261719 18.75 25.832031 18.898438 Z M 25.832031 18.898438 " clip-rule="nonzero"/></clipPath><linearGradient x1="19.926991" gradientTransform="matrix(0.540155, 0, 0, 0.540155, -1.313654, -4.473077)" y1="44.584999" x2="40.340794" gradientUnits="userSpaceOnUse" y2="44.584999" id="2a5c4b37c5"><stop stop-opacity="1" stop-color="rgb(36.143494%, 94.670105%, 99.884033%)" offset="0"/><stop stop-opacity="1" stop-color="rgb(35.958862%, 94.551086%, 99.824524%)" offset="0.015625"/><stop stop-opacity="1" stop-color="rgb(35.591125%, 94.314575%, 99.705505%)" offset="0.03125"/><stop stop-opacity="1" stop-color="rgb(35.221863%, 94.076538%, 99.586487%)" offset="0.046875"/><stop stop-opacity="1" stop-color="rgb(34.854126%, 93.840027%, 99.467468%)" offset="0.0625"/><stop stop-opacity="1" stop-color="rgb(34.484863%, 93.60199%, 99.34845%)" offset="0.078125"/><stop stop-opacity="1" stop-color="rgb(34.117126%, 93.365479%, 99.229431%)" offset="0.09375"/><stop stop-opacity="1" stop-color="rgb(33.747864%, 93.127441%, 99.110413%)" offset="0.109375"/><stop stop-opacity="1" stop-color="rgb(33.380127%, 92.89093%, 98.991394%)" offset="0.125"/><stop stop-opacity="1" stop-color="rgb(33.010864%, 92.652893%, 98.872375%)" offset="0.140625"/><stop stop-opacity="1" stop-color="rgb(32.643127%, 92.416382%, 98.753357%)" offset="0.15625"/><stop stop-opacity="1" stop-color="rgb(32.273865%, 92.179871%, 98.632812%)" offset="0.171875"/><stop stop-opacity="1" stop-color="rgb(31.906128%, 91.941833%, 98.513794%)" offset="0.1875"/><stop stop-opacity="1" stop-color="rgb(31.538391%, 91.705322%, 98.394775%)" offset="0.203125"/><stop stop-opacity="1" stop-color="rgb(31.169128%, 91.467285%, 98.275757%)" offset="0.21875"/><stop stop-opacity="1" stop-color="rgb(30.801392%, 91.230774%, 98.156738%)" offset="0.234375"/><stop stop-opacity="1" stop-color="rgb(30.432129%, 90.992737%, 98.03772%)" offset="0.25"/><stop stop-opacity="1" stop-color="rgb(30.064392%, 90.756226%, 97.918701%)" offset="0.265625"/><stop stop-opacity="1" stop-color="rgb(29.695129%, 90.518188%, 97.799683%)" offset="0.28125"/><stop stop-opacity="1" stop-color="rgb(29.327393%, 90.281677%, 97.680664%)" offset="0.296875"/><stop stop-opacity="1" stop-color="rgb(28.95813%, 90.04364%, 97.561646%)" offset="0.3125"/><stop stop-opacity="1" stop-color="rgb(28.590393%, 89.807129%, 97.442627%)" offset="0.328125"/><stop stop-opacity="1" stop-color="rgb(28.222656%, 89.570618%, 97.323608%)" offset="0.34375"/><stop stop-opacity="1" stop-color="rgb(27.853394%, 89.332581%, 97.20459%)" offset="0.359375"/><stop stop-opacity="1" stop-color="rgb(27.485657%, 89.096069%, 97.085571%)" offset="0.375"/><stop stop-opacity="1" stop-color="rgb(27.116394%, 88.858032%, 96.966553%)" offset="0.390625"/><stop stop-opacity="1" stop-color="rgb(26.748657%, 88.621521%, 96.847534%)" offset="0.40625"/><stop stop-opacity="1" stop-color="rgb(26.379395%, 88.383484%, 96.728516%)" offset="0.421875"/><stop stop-opacity="1" stop-color="rgb(26.011658%, 88.146973%, 96.607971%)" offset="0.4375"/><stop stop-opacity="1" stop-color="rgb(25.642395%, 87.908936%, 96.488953%)" offset="0.453125"/><stop stop-opacity="1" stop-color="rgb(25.274658%, 87.672424%, 96.369934%)" offset="0.46875"/><stop stop-opacity="1" stop-color="rgb(24.905396%, 87.434387%, 96.250916%)" offset="0.484375"/><stop stop-opacity="1" stop-color="rgb(24.537659%, 87.197876%, 96.131897%)" offset="0.5"/><stop stop-opacity="1" stop-color="rgb(24.169922%, 86.959839%, 96.012878%)" offset="0.515625"/><stop stop-opacity="1" stop-color="rgb(23.800659%, 86.723328%, 95.89386%)" offset="0.53125"/><stop stop-opacity="1" stop-color="rgb(23.432922%, 86.486816%, 95.774841%)" offset="0.546875"/><stop stop-opacity="1" stop-color="rgb(23.06366%, 86.248779%, 95.655823%)" offset="0.5625"/><stop stop-opacity="1" stop-color="rgb(22.695923%, 86.012268%, 95.536804%)" offset="0.578125"/><stop stop-opacity="1" stop-color="rgb(22.32666%, 85.774231%, 95.417786%)" offset="0.59375"/><stop stop-opacity="1" stop-color="rgb(21.958923%, 85.53772%, 95.298767%)" offset="0.609375"/><stop stop-opacity="1" stop-color="rgb(21.589661%, 85.299683%, 95.179749%)" offset="0.625"/><stop stop-opacity="1" stop-color="rgb(21.221924%, 85.063171%, 95.06073%)" offset="0.640625"/><stop stop-opacity="1" stop-color="rgb(20.852661%, 84.825134%, 94.941711%)" offset="0.65625"/><stop stop-opacity="1" stop-color="rgb(20.484924%, 84.588623%, 94.822693%)" offset="0.671875"/><stop stop-opacity="1" stop-color="rgb(20.117188%, 84.350586%, 94.703674%)" offset="0.6875"/><stop stop-opacity="1" stop-color="rgb(19.747925%, 84.114075%, 94.584656%)" offset="0.703125"/><stop stop-opacity="1" stop-color="rgb(19.380188%, 83.877563%, 94.464111%)" offset="0.71875"/><stop stop-opacity="1" stop-color="rgb(19.010925%, 83.639526%, 94.345093%)" offset="0.734375"/><stop stop-opacity="1" stop-color="rgb(18.643188%, 83.403015%, 94.226074%)" offset="0.75"/><stop stop-opacity="1" stop-color="rgb(18.273926%, 83.164978%, 94.107056%)" offset="0.765625"/><stop stop-opacity="1" stop-color="rgb(17.906189%, 82.928467%, 93.988037%)" offset="0.78125"/><stop stop-opacity="1" stop-color="rgb(17.536926%, 82.69043%, 93.869019%)" offset="0.796875"/><stop stop-opacity="1" stop-color="rgb(17.169189%, 82.453918%, 93.75%)" offset="0.8125"/><stop stop-opacity="1" stop-color="rgb(16.801453%, 82.215881%, 93.630981%)" offset="0.828125"/><stop stop-opacity="1" stop-color="rgb(16.43219%, 81.97937%, 93.511963%)" offset="0.84375"/><stop stop-opacity="1" stop-color="rgb(16.064453%, 81.741333%, 93.392944%)" offset="0.859375"/><stop stop-opacity="1" stop-color="rgb(15.69519%, 81.504822%, 93.273926%)" offset="0.875"/><stop stop-opacity="1" stop-color="rgb(15.327454%, 81.268311%, 93.154907%)" offset="0.890625"/><stop stop-opacity="1" stop-color="rgb(14.958191%, 81.030273%, 93.035889%)" offset="0.90625"/><stop stop-opacity="1" stop-color="rgb(14.590454%, 80.793762%, 92.91687%)" offset="0.921875"/><stop stop-opacity="1" stop-color="rgb(14.221191%, 80.555725%, 92.797852%)" offset="0.9375"/><stop stop-opacity="1" stop-color="rgb(13.853455%, 80.319214%, 92.678833%)" offset="0.953125"/><stop stop-opacity="1" stop-color="rgb(13.484192%, 80.081177%, 92.559814%)" offset="0.96875"/><stop stop-opacity="1" stop-color="rgb(13.116455%, 79.844666%, 92.43927%)" offset="0.984375"/><stop stop-opacity="1" stop-color="rgb(12.748718%, 79.606628%, 92.320251%)" offset="1"/></linearGradient><clipPath id="109340fd86"><path d="M 9 3 L 20.476562 3 L 20.476562 18.835938 L 9 18.835938 Z M 9 3 " clip-rule="nonzero"/></clipPath><clipPath id="70be5aa46a"><path d="M 8.828125 2.949219 L 20.476562 2.949219 L 20.476562 14 L 8.828125 14 Z M 8.828125 2.949219 " clip-rule="nonzero"/></clipPath><clipPath id="e931259de8"><path d="M 8.828125 6 L 9 6 L 9 7 L 8.828125 7 Z M 8.828125 6 " clip-rule="nonzero"/></clipPath><clipPath id="040c06c72d"><path d="M 13 2.949219 L 16 2.949219 L 16 3 L 13 3 Z M 13 2.949219 " clip-rule="nonzero"/></clipPath></defs><g clip-path="url(#9116d6d431)"><path fill="#ffffff" d="M 0.265625 0 L 126.738281 0 L 126.738281 30.503906 L 0.265625 30.503906 Z M 0.265625 0 " fill-opacity="1" fill-rule="nonzero"/><path fill="#ffffff" d="M 0.265625 0 L 126.738281 0 L 126.738281 30.503906 L 0.265625 30.503906 Z M 0.265625 0 " fill-opacity="1" fill-rule="nonzero"/></g><g clip-path="url(#848fb96c15)"><path fill="#f7941e" d="M 8.566406 16.699219 C 11.066406 18.199219 16.394531 18.835938 22.25 16.648438 L 16.496094 15.40625 C 16.699219 15.046875 17.070312 14.8125 17.484375 14.78125 L 26.929688 14.058594 C 26.929688 14.058594 29.066406 12.5625 31.292969 11.417969 C 33.324219 10.375 34.460938 10.652344 34.460938 10.652344 C 34.882812 10.574219 35.175781 10.578125 35.351562 10.644531 C 33.410156 4.625 27.765625 0.273438 21.101562 0.273438 C 14.847656 0.273438 9.492188 4.105469 7.25 9.550781 C 6.890625 8.183594 6.933594 6.328125 7.910156 3.84375 C 7.910156 3.84375 0.652344 11.945312 8.566406 16.699219 Z M 8.566406 16.699219 " fill-opacity="1" fill-rule="nonzero"/></g><g clip-path="url(#651f98b724)"><path fill="#f15757" d="M 35.503906 11.148438 C 35.148438 12.011719 33.023438 13.800781 29.527344 15.910156 C 28.679688 16.421875 25.574219 18.148438 22.367188 19.78125 C 17.511719 22.257812 8.074219 26.171875 0.265625 23.015625 C 0.265625 23.015625 7.304688 28.886719 21.148438 22.835938 C 15.910156 26.628906 12.125 27.230469 12.125 27.230469 C 14.625 29.109375 17.730469 30.226562 21.101562 30.226562 C 29.371094 30.226562 36.078125 23.519531 36.078125 15.25 C 36.078125 13.824219 35.875 12.453125 35.503906 11.148438 Z M 29.234375 23.058594 L 26.007812 18.59375 L 29.148438 16.78125 L 29.738281 21.6875 C 29.792969 22.199219 29.609375 22.707031 29.234375 23.058594 Z M 29.234375 23.058594 " fill-opacity="1" fill-rule="nonzero"/></g><g clip-path="url(#613d412c10)"><path fill="#ffc60b" d="M 31.308594 11.410156 C 33.328125 10.375 34.460938 10.652344 34.460938 10.652344 C 34.882812 10.574219 35.175781 10.578125 35.351562 10.644531 C 33.410156 4.625 27.765625 0.273438 21.101562 0.273438 C 14.847656 0.273438 9.492188 4.105469 7.25 9.550781 C 11.433594 3.191406 19.980469 1.425781 26.339844 5.609375 C 28.589844 7.09375 30.269531 9.125 31.308594 11.410156 Z M 31.308594 11.410156 " fill-opacity="1" fill-rule="nonzero"/></g><g clip-path="url(#c1a69e122a)"><path fill="#f15757" d="M 35.503906 11.148438 C 35.253906 11.761719 34.113281 12.835938 32.222656 14.164062 C 32.996094 17.667969 32.40625 21.46875 30.277344 24.703125 C 28.625 27.214844 26.292969 29.007812 23.683594 30.003906 C 30.722656 28.777344 36.078125 22.636719 36.078125 15.25 C 36.078125 13.824219 35.875 12.453125 35.503906 11.148438 Z M 35.503906 11.148438 " fill-opacity="1" fill-rule="nonzero"/></g><g clip-path="url(#8427427760)"><g clip-path="url(#d4336e7611)"><path fill="url(#2a5c4b37c5)" d="M 9.449219 18.347656 L 9.449219 18.835938 L 20.476562 18.835938 L 20.476562 18.347656 Z M 9.449219 18.347656 " fill-rule="nonzero"/></g></g><g clip-path="url(#109340fd86)"><path fill="#000000" d="M 19.539062 10.511719 C 19.539062 10.511719 18.160156 7.914062 16.621094 7.726562 C 16.382812 7.65625 16.179688 7.707031 16.011719 7.886719 C 16.011719 7.886719 16.851562 13.515625 14.648438 18.546875 C 14.625 18.589844 14.609375 18.632812 14.585938 18.679688 L 13.015625 18.648438 C 12.996094 18.601562 12.976562 18.558594 12.957031 18.511719 C 12.144531 16.53125 11.847656 14.476562 12.066406 12.347656 C 11.460938 12.605469 11.53125 14.109375 11.53125 14.109375 C 10.507812 12.800781 11.703125 12.253906 11.703125 12.253906 C 10.796875 12.375 10 13.925781 10 13.925781 C 9.839844 11.6875 11.683594 11.808594 11.683594 11.808594 C 11.007812 11.058594 9.398438 11.910156 9.398438 11.910156 C 10.644531 10.003906 12.238281 11.6875 12.238281 11.6875 C 12.109375 11.238281 11.871094 10.855469 11.53125 10.535156 C 11.1875 10.214844 10.789062 10.003906 10.332031 9.90625 C 12.613281 9.445312 12.558594 11.386719 12.558594 11.386719 C 13.738281 9.957031 15.046875 11.332031 15.046875 11.332031 C 14.679688 11.222656 14.308594 11.203125 13.929688 11.273438 C 13.554688 11.34375 13.214844 11.496094 12.914062 11.730469 C 14.695312 11.230469 14.910156 13.386719 14.910156 13.386719 C 14.496094 12.445312 13.152344 12.152344 13.152344 12.152344 C 14.179688 12.703125 13.539062 13.945312 13.539062 13.945312 C 13.625 12.839844 12.476562 12.261719 12.476562 12.261719 C 12.230469 14.308594 12.570312 16.25 13.5 18.089844 C 14.332031 16.503906 14.902344 14.828125 15.214844 13.0625 C 15.523438 11.300781 15.558594 9.53125 15.320312 7.753906 C 15.320312 7.753906 13.394531 8.753906 13.566406 10.625 C 13.566406 10.625 12.453125 8.550781 14.171875 7.585938 C 14.035156 7.617188 11.894531 8.164062 11.234375 9.714844 C 11.234375 9.714844 11.542969 6.066406 14.566406 6.871094 C 14.050781 6.480469 13.472656 6.230469 12.835938 6.121094 C 12.199219 6.007812 11.570312 6.050781 10.953125 6.246094 C 10.953125 6.246094 13.125 3.886719 15.152344 6.277344 C 15.152344 6.277344 15.015625 3 18.886719 3.722656 C 18.886719 3.722656 16.644531 4.042969 15.703125 6.777344 C 15.808594 6.667969 18.40625 3.964844 20.511719 7.085938 C 20.398438 7.03125 17.746094 5.714844 16.648438 6.96875 C 16.648438 6.96875 19.761719 6.722656 19.539062 10.511719 Z M 19.539062 10.511719 " fill-opacity="1" fill-rule="nonzero"/></g><g clip-path="url(#70be5aa46a)"><path fill="#000000" d="M 14.460938 -0.722656 C 15.40625 -0.730469 16.34375 -0.648438 17.269531 -0.476562 C 18.199219 -0.300781 19.101562 -0.0429688 19.980469 0.300781 C 20.859375 0.644531 21.695312 1.070312 22.492188 1.574219 C 23.292969 2.078125 24.035156 2.65625 24.722656 3.300781 C 25.410156 3.945312 26.027344 4.652344 26.582031 5.417969 C 27.136719 6.183594 27.609375 6.992188 28.007812 7.847656 C 28.40625 8.703125 28.71875 9.589844 28.949219 10.503906 C 29.179688 11.421875 29.320312 12.347656 29.371094 13.292969 C 29.382812 13.054688 29.386719 12.820312 29.386719 12.582031 C 29.363281 11.617188 29.25 10.664062 29.042969 9.722656 C 28.832031 8.78125 28.535156 7.867188 28.152344 6.984375 C 27.765625 6.101562 27.296875 5.261719 26.75 4.46875 C 26.199219 3.675781 25.582031 2.945312 24.890625 2.273438 C 24.195312 1.601562 23.445312 1.003906 22.640625 0.480469 C 21.832031 -0.046875 20.980469 -0.488281 20.085938 -0.847656 C 19.191406 -1.207031 18.269531 -1.476562 17.320312 -1.65625 C 16.375 -1.835938 15.417969 -1.921875 14.453125 -1.914062 C 13.492188 -1.910156 12.535156 -1.808594 11.589844 -1.617188 C 10.648438 -1.421875 9.730469 -1.140625 8.839844 -0.769531 C 7.949219 -0.398438 7.105469 0.0546875 6.304688 0.59375 C 5.503906 1.128906 4.761719 1.738281 4.078125 2.417969 C 3.398438 3.101562 2.789062 3.839844 2.25 4.640625 C 1.710938 5.441406 1.257812 6.285156 0.882812 7.175781 C 0.511719 8.0625 0.226562 8.980469 0.03125 9.925781 C -0.164062 10.871094 -0.261719 11.824219 -0.273438 12.789062 C -0.273438 13.027344 -0.261719 13.261719 -0.25 13.5 C -0.210938 12.554688 -0.0820312 11.625 0.132812 10.707031 C 0.351562 9.789062 0.652344 8.898438 1.039062 8.039062 C 1.425781 7.175781 1.886719 6.359375 2.429688 5.585938 C 2.972656 4.816406 3.582031 4.101562 4.261719 3.445312 C 4.941406 2.789062 5.675781 2.203125 6.464844 1.6875 C 7.253906 1.171875 8.085938 0.734375 8.960938 0.378906 C 9.835938 0.0195312 10.734375 -0.25 11.660156 -0.433594 C 12.585938 -0.621094 13.519531 -0.714844 14.460938 -0.722656 Z M 14.460938 -0.722656 " fill-opacity="1" fill-rule="nonzero"/></g><g clip-path="url(#e931259de8)"><path fill="#ffffff" d="M 7.632812 6.109375 C 7.632812 6.109375 7.855469 6.066406 8.113281 6.53125 C 8.285156 6.304688 8.511719 6.195312 8.796875 6.207031 C 8.679688 6.152344 8.558594 6.140625 8.433594 6.167969 C 8.304688 6.199219 8.203125 6.261719 8.121094 6.363281 C 8.121094 6.363281 7.871094 6.058594 7.632812 6.109375 Z M 7.632812 6.109375 " fill-opacity="1" fill-rule="nonzero"/></g><g clip-path="url(#040c06c72d)"><path fill="#ffffff" d="M 13.976562 2.371094 C 13.976562 2.371094 14.199219 2.328125 14.453125 2.792969 C 14.625 2.566406 14.855469 2.457031 15.136719 2.46875 C 15.019531 2.414062 14.898438 2.402344 14.773438 2.429688 C 14.648438 2.460938 14.542969 2.523438 14.464844 2.625 C 14.464844 2.625 14.214844 2.320312 13.976562 2.371094 Z M 13.976562 2.371094 " fill-opacity="1" fill-rule="nonzero"/></g><g fill="#ff914d" fill-opacity="0.4"><g transform="translate(39.256626, 19.238231)"><g><path d="M 5.953125 -5.46875 L 3.875 -5.46875 L 3.875 0 L 2.125 0 L 2.125 -5.46875 L 0.0625 -5.46875 L 0.0625 -6.890625 L 5.953125 -6.890625 Z M 5.953125 -5.46875 "/></g></g></g><g fill="#ff914d" fill-opacity="0.4"><g transform="translate(45.722896, 19.238231)"><g><path d="M 4.828125 0 L 3.8125 -1.9375 L 2.4375 -1.9375 L 2.4375 0 L 0.6875 0 L 0.6875 -6.875 L 3.765625 -6.875 C 4.671875 -6.875 5.375 -6.664062 5.875 -6.25 C 6.375 -5.832031 6.625 -5.242188 6.625 -4.484375 C 6.625 -3.421875 6.207031 -2.679688 5.375 -2.265625 L 6.828125 0 Z M 2.4375 -3.3125 L 3.765625 -3.3125 C 4.140625 -3.3125 4.429688 -3.40625 4.640625 -3.59375 C 4.859375 -3.78125 4.96875 -4.054688 4.96875 -4.421875 C 4.96875 -4.773438 4.859375 -5.039062 4.640625 -5.21875 C 4.429688 -5.40625 4.140625 -5.5 3.765625 -5.5 L 2.4375 -5.5 Z M 2.4375 -3.3125 "/></g></g></g><g fill="#ff914d" fill-opacity="0.4"><g transform="translate(53.299614, 19.238231)"><g><path d="M 2.4375 0 L 0.6875 0 L 0.6875 -6.875 L 2.4375 -6.875 Z M 2.4375 0 "/></g></g></g><g fill="#ff914d" fill-opacity="0.4"><g transform="translate(56.886585, 19.238231)"><g><path d="M 0.6875 -6.875 L 3.6875 -6.875 C 4.5625 -6.875 5.238281 -6.664062 5.71875 -6.25 C 6.207031 -5.832031 6.453125 -5.242188 6.453125 -4.484375 C 6.453125 -3.671875 6.207031 -3.039062 5.71875 -2.59375 C 5.238281 -2.15625 4.5625 -1.9375 3.6875 -1.9375 L 2.4375 -1.9375 L 2.4375 0 L 0.6875 0 Z M 2.4375 -5.5 L 2.4375 -3.3125 L 3.59375 -3.3125 C 3.976562 -3.3125 4.273438 -3.40625 4.484375 -3.59375 C 4.703125 -3.78125 4.8125 -4.054688 4.8125 -4.421875 C 4.8125 -4.773438 4.703125 -5.039062 4.484375 -5.21875 C 4.273438 -5.40625 3.976562 -5.5 3.59375 -5.5 Z M 2.4375 -5.5 "/></g></g></g><g fill="#ff914d" fill-opacity="0.4"><g transform="translate(64.030916, 19.238231)"><g><path d="M 5.265625 -3.5 L 6.765625 -3.5 L 6.765625 -0.8125 C 6.398438 -0.550781 5.953125 -0.335938 5.421875 -0.171875 C 4.890625 -0.00390625 4.382812 0.078125 3.90625 0.078125 C 2.863281 0.078125 1.988281 -0.253906 1.28125 -0.921875 C 0.582031 -1.597656 0.234375 -2.4375 0.234375 -3.4375 C 0.234375 -4.4375 0.59375 -5.269531 1.3125 -5.9375 C 2.03125 -6.601562 2.9375 -6.9375 4.03125 -6.9375 C 4.539062 -6.9375 5.046875 -6.84375 5.546875 -6.65625 C 6.054688 -6.476562 6.488281 -6.234375 6.84375 -5.921875 L 5.859375 -4.734375 C 5.609375 -4.960938 5.316406 -5.140625 4.984375 -5.265625 C 4.660156 -5.398438 4.335938 -5.46875 4.015625 -5.46875 C 3.453125 -5.46875 2.976562 -5.273438 2.59375 -4.890625 C 2.21875 -4.503906 2.03125 -4.019531 2.03125 -3.4375 C 2.03125 -2.851562 2.222656 -2.363281 2.609375 -1.96875 C 2.992188 -1.582031 3.472656 -1.390625 4.046875 -1.390625 C 4.410156 -1.390625 4.816406 -1.5 5.265625 -1.71875 Z M 5.265625 -3.5 "/></g></g></g><g fill="#ff914d" fill-opacity="0.4"><g transform="translate(71.794345, 19.238231)"><g><path d="M 6.078125 -5.5 L 2.4375 -5.5 L 2.4375 -4.140625 L 5.71875 -4.140625 L 5.71875 -2.765625 L 2.4375 -2.765625 L 2.4375 -1.375 L 6.1875 -1.375 L 6.1875 0 L 0.6875 0 L 0.6875 -6.875 L 6.078125 -6.875 Z M 6.078125 -5.5 "/></g></g></g><g fill="#ff914d" fill-opacity="0.4"><g transform="translate(78.879716, 19.238231)"><g><path d="M 7.03125 0 L 5.5 0 L 2.328125 -4.234375 L 2.328125 0 L 0.6875 0 L 0.6875 -6.875 L 2.234375 -6.875 L 5.40625 -2.640625 L 5.40625 -6.875 L 7.03125 -6.875 Z M 7.03125 0 "/></g></g></g><g fill="#ff914d" fill-opacity="0.4"><g transform="translate(87.065703, 19.238231)"><g><path d="M 2.4375 0 L 0.6875 0 L 0.6875 -6.875 L 2.4375 -6.875 Z M 2.4375 0 "/></g></g></g><g fill="#ff914d" fill-opacity="0.4"><g transform="translate(90.652673, 19.238231)"><g><path d="M 6.078125 -5.5 L 2.4375 -5.5 L 2.4375 -4.140625 L 5.71875 -4.140625 L 5.71875 -2.765625 L 2.4375 -2.765625 L 2.4375 -1.375 L 6.1875 -1.375 L 6.1875 0 L 0.6875 0 L 0.6875 -6.875 L 6.078125 -6.875 Z M 6.078125 -5.5 "/></g></g></g><g fill="#f15757" fill-opacity="1"><g transform="translate(38.671316, 18.952756)"><g><path d="M 5.953125 -5.46875 L 3.875 -5.46875 L 3.875 0 L 2.125 0 L 2.125 -5.46875 L 0.0625 -5.46875 L 0.0625 -6.890625 L 5.953125 -6.890625 Z M 5.953125 -5.46875 "/></g></g></g><g fill="#f15757" fill-opacity="1"><g transform="translate(45.137587, 18.952756)"><g><path d="M 4.828125 0 L 3.8125 -1.9375 L 2.4375 -1.9375 L 2.4375 0 L 0.6875 0 L 0.6875 -6.875 L 3.765625 -6.875 C 4.671875 -6.875 5.375 -6.664062 5.875 -6.25 C 6.375 -5.832031 6.625 -5.242188 6.625 -4.484375 C 6.625 -3.421875 6.207031 -2.679688 5.375 -2.265625 L 6.828125 0 Z M 2.4375 -3.3125 L 3.765625 -3.3125 C 4.140625 -3.3125 4.429688 -3.40625 4.640625 -3.59375 C 4.859375 -3.78125 4.96875 -4.054688 4.96875 -4.421875 C 4.96875 -4.773438 4.859375 -5.039062 4.640625 -5.21875 C 4.429688 -5.40625 4.140625 -5.5 3.765625 -5.5 L 2.4375 -5.5 Z M 2.4375 -3.3125 "/></g></g></g><g fill="#f15757" fill-opacity="1"><g transform="translate(52.714304, 18.952756)"><g><path d="M 2.4375 0 L 0.6875 0 L 0.6875 -6.875 L 2.4375 -6.875 Z M 2.4375 0 "/></g></g></g><g fill="#f15757" fill-opacity="1"><g transform="translate(56.301275, 18.952756)"><g><path d="M 0.6875 -6.875 L 3.6875 -6.875 C 4.5625 -6.875 5.238281 -6.664062 5.71875 -6.25 C 6.207031 -5.832031 6.453125 -5.242188 6.453125 -4.484375 C 6.453125 -3.671875 6.207031 -3.039062 5.71875 -2.59375 C 5.238281 -2.15625 4.5625 -1.9375 3.6875 -1.9375 L 2.4375 -1.9375 L 2.4375 0 L 0.6875 0 Z M 2.4375 -5.5 L 2.4375 -3.3125 L 3.59375 -3.3125 C 3.976562 -3.3125 4.273438 -3.40625 4.484375 -3.59375 C 4.703125 -3.78125 4.8125 -4.054688 4.8125 -4.421875 C 4.8125 -4.773438 4.703125 -5.039062 4.484375 -5.21875 C 4.273438 -5.40625 3.976562 -5.5 3.59375 -5.5 Z M 2.4375 -5.5 "/></g></g></g><g fill="#f15757" fill-opacity="1"><g transform="translate(63.445606, 18.952756)"><g><path d="M 5.265625 -3.5 L 6.765625 -3.5 L 6.765625 -0.8125 C 6.398438 -0.550781 5.953125 -0.335938 5.421875 -0.171875 C 4.890625 -0.00390625 4.382812 0.078125 3.90625 0.078125 C 2.863281 0.078125 1.988281 -0.253906 1.28125 -0.921875 C 0.582031 -1.597656 0.234375 -2.4375 0.234375 -3.4375 C 0.234375 -4.4375 0.59375 -5.269531 1.3125 -5.9375 C 2.03125 -6.601562 2.9375 -6.9375 4.03125 -6.9375 C 4.539062 -6.9375 5.046875 -6.84375 5.546875 -6.65625 C 6.054688 -6.476562 6.488281 -6.234375 6.84375 -5.921875 L 5.859375 -4.734375 C 5.609375 -4.960938 5.316406 -5.140625 4.984375 -5.265625 C 4.660156 -5.398438 4.335938 -5.46875 4.015625 -5.46875 C 3.453125 -5.46875 2.976562 -5.273438 2.59375 -4.890625 C 2.21875 -4.503906 2.03125 -4.019531 2.03125 -3.4375 C 2.03125 -2.851562 2.222656 -2.363281 2.609375 -1.96875 C 2.992188 -1.582031 3.472656 -1.390625 4.046875 -1.390625 C 4.410156 -1.390625 4.816406 -1.5 5.265625 -1.71875 Z M 5.265625 -3.5 "/></g></g></g><g fill="#f15757" fill-opacity="1"><g transform="translate(71.209035, 18.952756)"><g><path d="M 6.078125 -5.5 L 2.4375 -5.5 L 2.4375 -4.140625 L 5.71875 -4.140625 L 5.71875 -2.765625 L 2.4375 -2.765625 L 2.4375 -1.375 L 6.1875 -1.375 L 6.1875 0 L 0.6875 0 L 0.6875 -6.875 L 6.078125 -6.875 Z M 6.078125 -5.5 "/></g></g></g><g fill="#f15757" fill-opacity="1"><g transform="translate(78.294406, 18.952756)"><g><path d="M 7.03125 0 L 5.5 0 L 2.328125 -4.234375 L 2.328125 0 L 0.6875 0 L 0.6875 -6.875 L 2.234375 -6.875 L 5.40625 -2.640625 L 5.40625 -6.875 L 7.03125 -6.875 Z M 7.03125 0 "/></g></g></g><g fill="#f15757" fill-opacity="1"><g transform="translate(86.480393, 18.952756)"><g><path d="M 2.4375 0 L 0.6875 0 L 0.6875 -6.875 L 2.4375 -6.875 Z M 2.4375 0 "/></g></g></g><g fill="#f15757" fill-opacity="1"><g transform="translate(90.067364, 18.952756)"><g><path d="M 6.078125 -5.5 L 2.4375 -5.5 L 2.4375 -4.140625 L 5.71875 -4.140625 L 5.71875 -2.765625 L 2.4375 -2.765625 L 2.4375 -1.375 L 6.1875 -1.375 L 6.1875 0 L 0.6875 0 L 0.6875 -6.875 L 6.078125 -6.875 Z M 6.078125 -5.5 "/></g></g></g></svg>